<svg version="1.2" xmlns="http://www.w3.org/2000/svg" viewBox="0 0 24 24" width="24" height="24">
	<title>dark-mode-icon</title>
	<style>
		.s0 { fill: none } 
		.s1 { fill: #8a8f9c } 
	</style>
	<path id="Layer" class="s0" d="m-8-1c0-3.9 3.1-7 7-7h24c3.9 0 7 3.1 7 7v24c0 3.9-3.1 7-7 7h-24c-3.9 0-7-3.1-7-7z"/>
	<path id="Layer" class="s1" d="m5.3 3.9l-1.4-1.4c-0.4-0.4-1-0.4-1.4 0-0.4 0.4-0.4 1 0 1.4l1.4 1.4q0.3 0.3 0.7 0.3 0.4 0 0.7-0.3c0.4-0.3 0.4-1 0-1.4z"/>
	<path id="Layer" class="s1" d="m2 10h-2c-0.6 0-1 0.4-1 1 0 0.6 0.4 1 1 1h2c0.6 0 1-0.4 1-1 0-0.6-0.4-1-1-1z"/>
	<path id="Layer" class="s1" d="m5.3 16.7c-0.3-0.4-1-0.4-1.4 0l-1.4 1.4c-0.4 0.4-0.4 1 0 1.4q0.3 0.3 0.7 0.3 0.4 0 0.7-0.3l1.4-1.4c0.4-0.4 0.4-1.1 0-1.4z"/>
	<path id="Layer" class="s1" d="m11 19c-0.6 0-1 0.4-1 1v2c0 0.6 0.4 1 1 1 0.6 0 1-0.4 1-1v-2c0-0.6-0.4-1-1-1z"/>
	<path id="Layer" class="s1" d="m19.5 18.1l-1.4-1.4c-0.4-0.4-1.1-0.4-1.4 0-0.4 0.3-0.4 1 0 1.4l1.4 1.4q0.3 0.3 0.7 0.3 0.4 0 0.7-0.3c0.4-0.4 0.4-1 0-1.4z"/>
	<path id="Layer" class="s1" d="m22 10h-2c-0.6 0-1 0.4-1 1 0 0.6 0.4 1 1 1h2c0.6 0 1-0.4 1-1 0-0.6-0.4-1-1-1z"/>
	<path id="Layer" class="s1" d="m19.5 2.5c-0.4-0.4-1-0.4-1.4 0l-1.4 1.4c-0.4 0.4-0.4 1.1 0 1.4q0.3 0.3 0.7 0.3 0.4 0 0.7-0.3l1.4-1.4c0.4-0.4 0.4-1 0-1.4z"/>
	<path id="Layer" class="s1" d="m11 0c-0.6 0-1 0.4-1 1v2c0 0.6 0.4 1 1 1 0.6 0 1-0.4 1-1v-2c0-0.6-0.4-1-1-1z"/>
	<path id="Layer" fill-rule="evenodd" class="s1" d="m17.5 11c0 3.6-2.9 6.5-6.5 6.5-3.6 0-6.5-2.9-6.5-6.5 0-3.6 2.9-6.5 6.5-6.5 3.6 0 6.5 2.9 6.5 6.5zm-2 0c0-2.5-2-4.5-4.5-4.5-2.5 0-4.5 2-4.5 4.5 0 2.5 2 4.5 4.5 4.5 2.5 0 4.5-2 4.5-4.5z"/>
</svg>