<svg width="18" height="18" viewBox="0 0 18 18" fill="none" xmlns="http://www.w3.org/2000/svg">
<path d="M17.745 10.642C17.5315 10.4745 17.2376 10.4534 17.0022 10.5887C15.8863 11.2302 14.7067 11.5556 13.4964 11.5556C9.60749 11.5556 6.44373 8.39118 6.44373 4.50164C6.44373 3.28581 6.76947 2.10772 7.41197 1.00021C7.54842 0.765091 7.52818 0.470567 7.36083 0.256223C7.19357 0.0418787 6.91276 -0.0493109 6.65157 0.0261625C4.7729 0.567795 3.08199 1.71694 1.89039 3.26184C0.653686 4.86533 0 6.78573 0 8.81552C0 13.8798 4.11939 18 9.18286 18C11.2124 18 13.1329 17.3465 14.737 16.11C16.2828 14.9185 17.4323 13.2283 17.9738 11.3507C18.0491 11.0898 17.9586 10.8095 17.745 10.642ZM9.18286 16.668C4.85369 16.668 1.3317 13.1454 1.3317 8.81552C1.3317 5.89444 3.00298 3.23618 5.54306 1.90021C5.25648 2.7424 5.11204 3.61248 5.11204 4.50164C5.11204 9.12558 8.87328 12.8874 13.4964 12.8874C14.3842 12.8874 15.2557 12.7424 16.1018 12.4548C14.7662 14.9957 12.106 16.668 9.18286 16.668Z" fill="black"/>
</svg>
